<svg width="38" height="36" viewBox="0 0 38 36" fill="none" xmlns="http://www.w3.org/2000/svg">
<path d="M13.1778 4.23418C13.1334 3.34609 12.7527 2.52879 12.1055 1.93351C11.4552 1.33823 10.6176 1.03255 9.74201 1.0776C9.17413 1.10656 8.63481 1.28031 8.16527 1.57956C7.91147 1.74045 7.67988 1.93673 7.47367 2.1684C6.88676 2.82804 6.58537 3.67751 6.62978 4.5656C6.71861 6.39648 8.26045 7.81228 10.0656 7.72218C10.9412 7.67713 11.747 7.29101 12.3339 6.63459C12.9209 5.97175 13.2222 5.12227 13.1778 4.23418Z" fill="#F3D113"/>
<path d="M11.0966 35.5458C12.9017 35.4557 14.2976 33.8919 14.2088 32.061C14.12 30.2302 12.5781 28.8144 10.773 28.9045C10.1924 28.9334 9.65625 29.1136 9.19623 29.4064C8.22228 30.0242 7.59729 31.1472 7.65757 32.3892C7.74957 34.2201 9.29141 35.6359 11.0966 35.5458Z" fill="#F3D113"/>
<path d="M8.4381 27.9199C7.73381 27.1959 7.09296 26.3882 6.53777 25.4937C3.24154 20.1652 3.90459 13.4401 7.71477 8.87742C6.52191 8.2757 5.59871 7.19455 5.1958 5.87207C-0.0356577 11.6929 -1.05086 20.5706 3.27644 27.5659C4.09812 28.8948 5.06256 30.0725 6.13804 31.1022C6.4426 29.7572 7.28648 28.6084 8.4381 27.9199Z" fill="#F3D113"/>
<path d="M33.9925 14.132C33.4246 14.161 32.8853 14.3347 32.4158 14.634C32.162 14.7949 31.9304 14.9911 31.7242 15.2228C31.1372 15.8824 30.8359 16.7319 30.8803 17.62C30.9691 19.4509 32.5109 20.8667 34.3161 20.7766C36.1212 20.6865 37.5172 19.1227 37.4283 17.2918C37.3395 15.4577 35.7977 14.0419 33.9925 14.132Z" fill="#F3D113"/>
<path d="M30.0936 10.5058C30.6488 11.4036 31.0866 12.3399 31.4197 13.2988C32.1525 12.8 33.0059 12.504 33.9133 12.459C34.3733 12.4364 34.8206 12.4815 35.2489 12.5812C34.8047 11.1526 34.1766 9.75608 33.3549 8.42717C29.0308 1.43507 20.7093 -1.50271 13.2603 0.740042C14.2057 1.63135 14.764 2.84121 14.8275 4.15404C14.8306 4.21839 14.8275 4.28597 14.8275 4.35032C20.538 2.85408 26.7973 5.17727 30.0936 10.5058Z" fill="#F3D113"/>
<path d="M34.3953 22.447C33.415 22.4953 32.4918 22.2475 31.6987 21.7842C30.8008 25.0534 28.7514 28.004 25.6995 29.9443C22.6507 31.8846 19.1355 32.4734 15.8457 31.8685C15.8488 31.9071 15.8552 31.9425 15.8552 31.9811C15.9218 33.3615 15.4237 34.6422 14.5703 35.5914C18.942 36.5471 23.6659 35.8488 27.7457 33.2553C31.8224 30.6619 34.5 26.6494 35.5533 22.2443C35.1852 22.3537 34.7982 22.4277 34.3953 22.447Z" fill="#F3D113"/>
</svg>
